<?xml version="1.0" encoding="UTF-8" standalone="no"?>
<!-- Created with Inkscape (http://www.inkscape.org/) -->

<svg
   version="1.1"
   id="svg2"
   width="5333.3335"
   height="5333.3335"
   viewBox="0 0 5333.3335 5333.3335"
   sodipodi:docname="logo.svg"
   inkscape:version="1.3.2 (091e20e, 2023-11-25)"
   xmlns:inkscape="http://www.inkscape.org/namespaces/inkscape"
   xmlns:sodipodi="http://sodipodi.sourceforge.net/DTD/sodipodi-0.dtd"
   xmlns="http://www.w3.org/2000/svg"
   xmlns:svg="http://www.w3.org/2000/svg">
  <defs
     id="defs6" />
  <sodipodi:namedview
     id="namedview4"
     pagecolor="#ffffff"
     bordercolor="#000000"
     borderopacity="0.25"
     inkscape:showpageshadow="2"
     inkscape:pageopacity="0.0"
     inkscape:pagecheckerboard="0"
     inkscape:deskcolor="#d1d1d1"
     inkscape:zoom="0.13108182"
     inkscape:cx="2384.0072"
     inkscape:cy="2883.6951"
     inkscape:window-width="2560"
     inkscape:window-height="1387"
     inkscape:window-x="0"
     inkscape:window-y="25"
     inkscape:window-maximized="0"
     inkscape:current-layer="g10" />
  <g
     id="g8"
     inkscape:groupmode="layer"
     inkscape:label="ink_ext_XXXXXX"
     transform="matrix(1.3333333,0,0,-1.3333333,0,5333.3333)">
    <g
       id="g10"
       transform="scale(0.1)">
      <path
         d="m 19977.807,39599.488 c -10907.0774,0 -19748.9423,-8790.762 -19748.9423,-19634.51 0,-10843.8781 8841.8649,-19634.50995 19748.9423,-19634.50995 10907.078,0 19748.942,8790.63185 19748.942,19634.50995 0,10843.748 -8841.864,19634.51 -19748.942,19634.51"
         style="fill:#ffd1ae;fill-opacity:1;fill-rule:nonzero;stroke:none;stroke-width:1.31277"
         id="path14" />
      <path
         d="m 23233.749,21260.986 c -1302.508,0 -2362.5,-1053.849 -2362.5,-2348.679 0,-1294.962 1059.992,-2348.68 2362.5,-2348.68 1302.377,0 2362.106,1053.718 2362.106,2348.68 0,1294.83 -1059.729,2348.679 -2362.106,2348.679 M 14517.356,6495.3114 c -1403.228,0 -2674.665,147.6516 -3779.026,439.6822 -2509.5637,663.3845 -5428.9445,2346.9783 -5086.5374,6599.5514 225.9807,2811.662 1897.0835,3593.901 4012.5902,4583.742 1979.8972,926.487 4443.9072,2079.294 6286.3512,5398.05 1631.131,2939.548 4937.631,6371.53 8886.893,6371.53 471.342,0 948.081,-49.872 1416.789,-148.306 2789.077,-586.287 5032.425,-2323.81 6317.028,-4893.181 1482.093,-2963.896 1477.484,-6612.118 -12.244,-9759.399 C 30127.315,9947.5819 21266.623,6495.3114 14517.356,6495.3114"
         style="fill:#e25f52;fill-opacity:1;fill-rule:nonzero;stroke:none;stroke-width:1.31277"
         id="path16" />
      <path
         d="m 24835.52,29877.133 c -4216.136,0 -7562.397,-4001.906 -8875.174,-6366.424 -1842.972,-3321.112 -4205.603,-4426.404 -6290.1699,-5402.108 -2112.8738,-988.664 -3781.304,-1769.724 -4007.008,-4575.103 -266.4001,-3311.949 1536.9416,-5651.5974 5078.0589,-6587.1164 1135.3,-300.0152 2435.176,-452.2482 3863.814,-452.2482 6704.634,0 15509.766,3454.6265 17943.889,8597.4276 1488.018,3143.878 1492.625,6788.567 12.245,9750.237 -1283.154,2565.445 -3523.606,4301.266 -6308.997,4886.375 -469.104,99.089 -945.579,148.96 -1416.658,148.96 M 15181.053,3906.5668 c -1949.09,0 -3743.083,213.3616 -5332.215,633.2783 -5095.056,1347.0584 -7696.242,4633.4818 -7324.2377,9255.7079 292.8768,3642.463 2129.2915,4655.997 4454.058,5940.225 2174.8852,1200.977 4880.2267,2695.033 7198.2267,6871.162 1483.803,2671.864 5465.454,7192.775 10978.041,7192.775 695.954,0 1402.57,-74.742 2100.498,-221.346 3515.18,-739.043 6427.754,-3099.111 8200.683,-6645.889 2073.771,-4147.987 2181.6,-9218.925 281.488,-13233.136 C 32727.724,7339.0719 22899.598,3906.5668 15181.053,3906.5668"
         style="fill:#c1432f;fill-opacity:1;fill-rule:nonzero;stroke:none;stroke-width:1.31277"
         id="path18" />
      <path
         d="m 23233.749,16552.238 c -1309.091,0 -2373.823,1058.955 -2373.823,2360.069 0,1301.113 1064.732,2360.067 2373.823,2360.067 1308.697,0 2373.428,-1058.954 2373.428,-2360.067 0,-1301.114 -1064.731,-2360.069 -2373.428,-2360.069"
         style="fill:#c1432f;fill-opacity:1;fill-rule:nonzero;stroke:none;stroke-width:1.31277"
         id="path20" />
      <path
         d="m 17203.344,2037.885 c -6618.66,0 -11021.8715,1694.4582 -13087.1105,5036.9063 l 469.9063,357.0863 C 5833.088,6114.402 7604.8314,5144.9808 9851.9982,4551.2332 11418.615,4136.945 13192.07,3926.9867 15123.517,3926.9867 c 7853.101,0 17707.165,3657.1237 20603.808,9776.8083 529.403,1118.381 910.031,2348.68 1131.088,3656.076 l 590.099,-36.258 C 37553.181,14974.409 37207.706,11538.501 34967.386,8511.7759 32287.06,4891.3029 27607.218,2771.2994 21057.68,2211.585 c -1348.458,-115.451 -2645.306,-173.7 -3854.336,-173.7"
         style="fill:#a02e14;fill-opacity:1;fill-rule:nonzero;stroke:none;stroke-width:1.31277"
         id="path22" />
      <path
         d="m 9038.078,3270.1468 c -984.4189,352.3741 -1817.9559,773.2071 -2460.6919,1252.42 0,0 7.9522,-3.0107 23.6724,-8.5083 714.5167,-485.8886 1526.8566,-900.4387 2437.0195,-1243.9117 M 4572.0785,7421.275 c -47.0947,54.3221 -93.7679,110.0841 -139.0721,165.9768 48.0953,-53.7984 97.178,-107.2042 147.0112,-159.9555 l -7.9391,-6.0213"
         style="fill:#cccccc;fill-opacity:1;fill-rule:nonzero;stroke:none;stroke-width:1.31277"
         id="path24" />
      <path
         d="m 17450.338,2038.0159 c -33.179,0 -65.962,0 -99.14,0.1309 1101.99,4.3196 2274.683,56.4165 3491.613,155.5053 -1156.498,-105.11 -2292.326,-155.6362 -3392.473,-155.6362 M 31939.61,5604.9518 c 1195.074,826.613 2205.43,1796.0341 3027.776,2906.8241 641.446,866.536 1127.401,1766.4511 1492.099,2665.0571 -737.031,-2054.6861 -1911.962,-4035.8079 -4005.481,-5269.5096 -173.396,-102.0995 -344.553,-203.0208 -514.394,-302.3716 M 20036.659,7146.3919 c 33.441,11.9115 65.435,23.4305 98.876,35.6038 3083.073,719.5396 6141.394,1976.6712 8522.985,3636.3113 C 26249.94,9131.0479 23150.277,7860.1715 20036.659,7146.3919 m 17240.564,7004.5461 c 119.283,754.096 173.131,1475.598 185.113,2140.816 25.673,-557.751 -12.64,-1267.343 -185.113,-2140.816 m 40.155,3180.79 -440.796,27.096 c 101.51,600.293 167.076,1210.271 196.305,1823.522 0,-1.178 0,-2.88 0,-4.057 1.974,-563.118 -30.94,-1098.879 -87.159,-1615.789 l 116.518,356.3 c 0,0 114.15,-188.098 215.132,-587.072"
         style="fill:#cca78b;fill-opacity:1;fill-rule:nonzero;stroke:none;stroke-width:1.31277"
         id="path26" />
      <path
         d="m 20135.535,7181.9957 c 1901.165,688.9089 3870.925,1728.3602 5849.768,3236.2913 5871.887,4474.704 6933.723,10053.261 6562.838,14449.428 4.345,-8.638 8.689,-17.278 13.034,-25.917 1480.38,-2961.67 1475.773,-6606.359 -12.245,-9750.237 -760.598,-1607.149 -2143.945,-3049.762 -3890.41,-4273.254 C 26276.929,9158.6669 23218.608,7901.5353 20135.535,7181.9957"
         style="fill:#b54c42;fill-opacity:1;fill-rule:nonzero;stroke:none;stroke-width:1.31277"
         id="path28" />
      <path
         d="m 15165.648,3986.5447 c -1845.605,0 -3744.794,172.7836 -5478.4883,609.1934 -2168.9603,597.02 -3884.7353,1550.9954 -5101.0199,2836.1395 l -6.1222,-4.5813 c -49.8332,52.7513 -98.9159,106.1571 -147.0112,159.9555 -198.5558,245.1697 -379.6537,505.3924 -541.6081,781.3231 0,0 3962.0065,-2359.9374 9564.9137,-2359.9374 2016.63,0 4246.68,306.0365 6580.347,1137.7544 3113.618,713.7796 6213.281,1984.656 8621.861,3671.9151 1746.465,1223.492 3129.812,2666.105 3890.41,4273.254 1488.018,3143.878 1492.625,6788.567 12.245,9750.237 -4.345,8.639 -8.689,17.279 -13.034,25.917 -356.93,4230.714 -2040.725,7366.214 -2040.725,7366.214 0,0 6529,-2947.533 6565.471,-13051.583 -29.229,-613.251 -94.795,-1223.229 -196.305,-1823.522 l -18.169,1.047 c -221.057,-1307.396 -601.685,-2537.695 -1131.088,-3656.076 -1313.963,-2775.927 -4059.593,-5045.2841 -7400.586,-6696.2846 -1881.943,-849.258 -3667.511,-1393.9193 -4879.438,-1832.0307 -224.479,-81.156 -476.476,-161.7884 -753.225,-240.85 -748.485,-194.6434 -1502.894,-362.0603 -2257.172,-501.3345 -1544.104,-265.3277 -3379.307,-446.7505 -5271.256,-446.7505"
         style="fill:#9a3626;fill-opacity:1;fill-rule:nonzero;stroke:none;stroke-width:1.31277"
         id="path30" />
      <path
         d="m 17351.198,2038.1468 c -3229.611,9.0319 -6140.473,454.2117 -8313.12,1232 -910.1629,343.473 -1722.5028,758.0231 -2437.0195,1243.9117 349.0297,-124.3518 4518.4265,-1566.8339 10146.2165,-1566.7031 3777.709,0.131 8213.322,650.4259 12589.424,2785.7444 3424.203,1670.8969 5225.702,4973.6832 6048.838,6998.6562 -1713.944,-2821.6111 -4477.217,-4559.3963 -7058.798,-5724.2456 3340.993,1651.0005 6086.623,3920.3576 7400.586,6696.2846 529.403,1118.381 910.031,2348.68 1131.088,3656.076 l 18.169,-1.047 440.796,-27.096 c 65.172,-257.081 124.814,-601.732 144.958,-1039.974 -11.982,-665.218 -65.83,-1386.72 -185.113,-2140.816 -20.671,-104.586 -43.316,-211.66 -67.937,-321.09 -193.935,-861.693 -430.922,-1764.226 -749.801,-2653.015 -364.698,-898.606 -850.653,-1798.5211 -1492.099,-2665.0571 C 34145.04,7400.9859 33134.684,6431.5648 31939.61,5604.9518 29169.755,3984.3194 26742.347,2743.2875 20929.442,2201.6368 c -28.965,-2.7488 -57.666,-5.3668 -86.631,-7.9847 -1216.93,-99.0888 -2389.623,-151.1857 -3491.613,-155.5053 m 3085.706,2395.1484 c 754.278,139.2742 1508.687,306.6911 2257.172,501.3345 -636.31,-181.8156 -1401.647,-354.4683 -2257.172,-501.3345 M 9687.1597,4595.7381 C 7626.4236,5114.4818 5798.2509,6005.365 4572.0785,7421.275 l 7.9391,6.0213 6.1222,4.5813 C 5802.4244,6146.7335 7518.1994,5192.7581 9687.1597,4595.7381"
         style="fill:#802510;fill-opacity:1;fill-rule:nonzero;stroke:none;stroke-width:1.31277"
         id="path32" />
      <path
         d="M 34728.029,8687.1769 C 32100.63,5138.1741 27492.806,3058.225 21032.401,2505.8408 12408.037,1769.6776 6735.8911,3400.1273 4369.586,7229.3803 5641.6812,5885.3327 7456.4511,4878.475 9775.7674,4265.3547 c 1620.8606,-428.425 3438.8166,-633.802 5347.7496,-633.802 8154.339,0 17942.836,3756.2127 20872.789,9946.5803 554.418,1171.526 935.309,2432.455 1155.445,3732.652 100.851,-2269.88 -222.11,-5649.241 -2423.722,-8623.6081 z M 2820.9003,13771.73 c 280.3559,3484.601 1967.3238,4416.194 4302.0569,5705.396 2207.2735,1219.041 4954.4828,2735.872 7314.0858,6987.267 1635.213,2944.13 6405.504,8161.543 12756.896,6824.826 3424.73,-719.933 6264.101,-3023.846 7996.084,-6488.159 2034.141,-4069.187 2141.18,-9041.037 278.591,-12976.186 C 31962.914,6417.1661 18263.335,2620.2446 9925.464,4825.7236 4984.9103,6131.4186 2461.6933,9308.6749 2820.9003,13771.73 Z m 34602.5957,6092.457 c -9.348,42.018 -28.57,78.67 -53.19,110.87 -6.714,2427.087 -558.105,4883.365 -1658.385,7084.131 -1812.689,3626.101 -4795.043,6039.837 -8397.25,6797.075 -6685.017,1402.428 -11680.71,-4038.033 -13387.94,-7112.274 -2278.764,-4104.922 -4944.4767,-5577.51 -7086.9736,-6760.293 -2399.3386,-1324.937 -4294.6577,-2371.455 -4600.0685,-6165.498 -117.651,-1463.032 55.0073,-2794.645 497.8445,-3980.1771 0.7109,-4.843 -1.0269,-9.424 -0.027,-14.399 762.2171,-3806.6071 3954.8706,-8071.6154 14432.2646,-8071.6154 1205.081,0 2507.588,56.5474 3912.791,176.5797 6634.855,567.0447 11383.818,2725.6627 14115.097,6415.1187 3496.879,4723.9321 2467.696,10425.4001 2225.837,11520.4821"
         style="fill:#472609;fill-opacity:1;fill-rule:nonzero;stroke:none;stroke-width:1.31277"
         id="path34" />
      <path
         d="m 5948.0795,13510.853 c 212.3274,2641.234 1735.0894,3353.835 3842.9599,4340.273 2018.8676,944.552 4531.3296,2120.658 6419.8546,5522.533 1360.438,2451.174 4582.412,6218.774 8626.733,6218.774 442.244,0 894.758,-45.291 1355.303,-142.023 2698.233,-567.175 4868.773,-2248.544 6112.43,-4735.452 1441.805,-2884.047 1436.143,-6435.93 -15.141,-9502.317 C 29438.604,9186.4169 17389.774,5482.1707 10814.561,7220.8721 8414.6697,7855.1977 5622.1825,9461.4309 5948.0795,13510.853 Z M 10664.864,6660.5032 c 1184.937,-312.9741 2525.231,-462.3273 3948.077,-461.8037 6887.904,0 15708.835,3493.1104 18204.97,8767.2005 1526.462,3224.772 1529.885,6965.801 9.348,10007.187 -1324.364,2648.696 -3637.756,4439.886 -6513.596,5044.368 -5006.884,1054.373 -9026.32,-3505.022 -10613.477,-6364.2 C 13903.428,20416.048 11586.745,19332.224 9542.8613,18375.76 7430.3825,17387.098 5606.2516,16532.997 5366.8812,13557.19 5087.6576,10086.856 6969.0471,7637.3848 10664.864,6660.5032"
         style="fill:#472609;fill-opacity:1;fill-rule:nonzero;stroke:none;stroke-width:1.31277"
         id="path36" />
      <path
         d="m 23233.749,20976.94 c 1144.78,0 2076.273,-925.963 2076.273,-2064.633 0,-1138.672 -931.493,-2064.634 -2076.273,-2064.634 -1145.044,0 -2076.666,925.962 -2076.666,2064.634 0,1138.67 931.622,2064.633 2076.666,2064.633 z m 0,-4708.748 c 1466.293,0 2659.261,1186.187 2659.261,2644.115 0,1457.928 -1192.968,2644.113 -2659.261,2644.113 -1466.425,0 -2659.656,-1186.185 -2659.656,-2644.113 0,-1457.928 1193.231,-2644.115 2659.656,-2644.115"
         style="fill:#472609;fill-opacity:1;fill-rule:nonzero;stroke:none;stroke-width:1.31277"
         id="path38" />
    </g>
  </g>
</svg>
