<?xml version="1.0" encoding="UTF-8" standalone="no"?>
<!-- Created with Inkscape (http://www.inkscape.org/) -->

<svg
   version="1.1"
   id="svg2"
   width="5333.3335"
   height="5333.3335"
   viewBox="0 0 5333.3335 5333.3335"
   sodipodi:docname="vecteezy_meat-steak-illustration-cartoon-food-and-drink-logo-beef_12507428.eps"
   xmlns:inkscape="http://www.inkscape.org/namespaces/inkscape"
   xmlns:sodipodi="http://sodipodi.sourceforge.net/DTD/sodipodi-0.dtd"
   xmlns="http://www.w3.org/2000/svg"
   xmlns:svg="http://www.w3.org/2000/svg">
  <defs
     id="defs6" />
  <sodipodi:namedview
     id="namedview4"
     pagecolor="#ffffff"
     bordercolor="#000000"
     borderopacity="0.25"
     inkscape:showpageshadow="2"
     inkscape:pageopacity="0.0"
     inkscape:pagecheckerboard="0"
     inkscape:deskcolor="#d1d1d1" />
  <g
     id="g8"
     inkscape:groupmode="layer"
     inkscape:label="ink_ext_XXXXXX"
     transform="matrix(1.3333333,0,0,-1.3333333,0,5333.3333)">
    <g
       id="g10"
       transform="scale(0.1)">
      <path
         d="M 0,0 H 40000 V 40000 H 0 Z"
         style="fill:#ffffff;fill-opacity:1;fill-rule:nonzero;stroke:none"
         id="path12" />
      <path
         d="m 20000,36564.2 c -8284.3,0 -15000,-6715.8 -15000,-15000 0,-8284.3 6715.7,-15000 15000,-15000 8284.3,0 15000,6715.7 15000,15000 0,8284.2 -6715.7,15000 -15000,15000"
         style="fill:#ffd1ae;fill-opacity:1;fill-rule:nonzero;stroke:none"
         id="path14" />
      <path
         d="m 22473,22554.3 c -989.3,0 -1794.4,-805.1 -1794.4,-1794.3 0,-989.3 805.1,-1794.3 1794.4,-1794.3 989.2,0 1794.1,805 1794.1,1794.3 0,989.2 -804.9,1794.3 -1794.1,1794.3 M 15852.6,11273.9 c -1065.8,0 -2031.5,112.8 -2870.3,335.9 -1906.1,506.8 -4123.47,1793 -3863.4,5041.8 171.64,2148 1440.9,2745.6 3047.7,3501.8 1503.8,707.8 3375.3,1588.5 4774.7,4123.9 1238.9,2245.7 3750.3,4867.6 6749.9,4867.6 358,0 720.1,-38.1 1076.1,-113.3 2118.4,-447.9 3822.3,-1775.3 4798,-3738.2 1125.7,-2264.3 1122.2,-5051.4 -9.3,-7455.8 -1847.1,-3926.3 -8577.1,-6563.7 -13703.4,-6563.7"
         style="fill:#e25f52;fill-opacity:1;fill-rule:nonzero;stroke:none"
         id="path16" />
      <path
         d="m 23689.6,29136.7 c -3202.3,0 -5743.9,-3057.3 -6741,-4863.7 -1399.8,-2537.2 -3194.3,-3381.6 -4777.6,-4127 -1604.8,-755.3 -2872.03,-1352 -3043.46,-3495.2 -202.34,-2530.2 1167.36,-4317.6 3856.96,-5032.3 862.3,-229.2 1849.6,-345.5 2934.7,-345.5 5092.4,0 11780.2,2639.2 13629,6568.1 1130.2,2401.8 1133.7,5186.2 9.3,7448.8 -974.6,1959.9 -2676.3,3286 -4791.9,3733 -356.3,75.7 -718.2,113.8 -1076,113.8 M 16356.7,9296.2 c -1480.4,0 -2843,163 -4050,483.8 -3869.87,1029.1 -5845.56,3539.8 -5563.01,7071 222.45,2782.7 1617.27,3557 3383.01,4538.1 1651.9,917.5 3706.7,2058.9 5467.3,5249.3 1127,2041.2 4151.2,5495 8338.2,5495 528.6,0 1065.3,-57.1 1595.4,-169.1 2669.9,-564.6 4882.1,-2367.6 6228.7,-5077.2 1575.1,-3168.9 1657,-7042.9 213.8,-10109.6 C 29684,11918.5 22219.2,9296.2 16356.7,9296.2"
         style="fill:#c1432f;fill-opacity:1;fill-rule:nonzero;stroke:none"
         id="path18" />
      <path
         d="m 22473,18957 c -994.3,0 -1803,809 -1803,1803 0,994 808.7,1803 1803,1803 994,0 1802.7,-809 1802.7,-1803 0,-994 -808.7,-1803 -1802.7,-1803"
         style="fill:#c1432f;fill-opacity:1;fill-rule:nonzero;stroke:none"
         id="path20" />
      <path
         d="m 17892.7,7868.6 c -5027.1,0 -8371.49,1294.5 -9940.11,3848 l 356.91,272.8 c 947.1,-1006.5 2292.8,-1747.1 3999.6,-2200.7 1189.9,-316.5 2536.9,-476.9 4003.9,-476.9 5964.7,0 13449.2,2793.9 15649.3,7469.1 402.1,854.4 691.2,1794.3 859.1,2793.1 l 448.2,-27.7 c 79.5,-1794.7 -182.9,-4419.6 -1884.5,-6731.9 C 29349.3,10048.5 25794.8,8428.9 20820.2,8001.3 19796,7913.1 18811,7868.6 17892.7,7868.6"
         style="fill:#a02e14;fill-opacity:1;fill-rule:nonzero;stroke:none"
         id="path22" />
      <path
         d="m 11690.9,8810 c -747.7,269.2 -1380.8,590.7 -1868.98,956.8 0,0 6.04,-2.3 17.98,-6.5 542.7,-371.2 1159.7,-687.9 1851,-950.3 m -3392.08,3171.3 c -35.77,41.5 -71.22,84.1 -105.63,126.8 36.53,-41.1 73.81,-81.9 111.66,-122.2 l -6.03,-4.6"
         style="fill:#cccccc;fill-opacity:1;fill-rule:nonzero;stroke:none"
         id="path24" />
      <path
         d="m 18080.3,7868.7 c -25.2,0 -50.1,0 -75.3,0.1 837,3.3 1727.7,43.1 2652,118.8 -878.4,-80.3 -1741.1,-118.9 -2576.7,-118.9 m 11005.1,2725 c 907.7,631.5 1675.1,1372.1 2299.7,2220.7 487.2,662 856.3,1349.5 1133.3,2036 -559.8,-1569.7 -1452.2,-3083.2 -3042.3,-4025.7 -131.7,-78 -261.7,-155.1 -390.7,-231 m -9040.7,1177.6 c 25.4,9.1 49.7,17.9 75.1,27.2 2341.7,549.7 4664.6,1510.1 6473.5,2778 -1829.4,-1289 -4183.7,-2259.9 -6548.6,-2805.2 m 13094.8,5351.2 c 90.6,576.1 131.5,1127.3 140.6,1635.5 19.5,-426.1 -9.6,-968.2 -140.6,-1635.5 m 30.5,2430 -334.8,20.7 c 77.1,458.6 126.9,924.6 149.1,1393.1 0,-0.9 0,-2.2 0,-3.1 1.5,-430.2 -23.5,-839.5 -66.2,-1234.4 l 88.5,272.2 c 0,0 86.7,-143.7 163.4,-448.5"
         style="fill:#cca78b;fill-opacity:1;fill-rule:nonzero;stroke:none"
         id="path26" />
      <path
         d="m 20119.8,11798.5 c 1444,526.3 2940.1,1320.4 4443.1,2472.4 4459.9,3418.5 5266.4,7680.3 4984.7,11038.8 3.3,-6.6 6.6,-13.2 9.9,-19.8 1124.4,-2262.6 1120.9,-5047 -9.3,-7448.8 -577.7,-1227.8 -1628.4,-2329.9 -2954.9,-3264.6 -1808.9,-1267.9 -4131.8,-2228.3 -6473.5,-2778"
         style="fill:#b54c42;fill-opacity:1;fill-rule:nonzero;stroke:none"
         id="path28" />
      <path
         d="m 16345,9357.3 c -1401.8,0 -2844.3,132 -4161.1,465.4 -1647.4,456.1 -2950.59,1184.9 -3874.4,2166.7 l -4.65,-3.5 c -37.85,40.3 -75.13,81.1 -111.66,122.2 -150.81,187.3 -288.36,386.1 -411.37,596.9 0,0 3009.28,-1802.9 7264.88,-1802.9 1531.7,0 3225.5,233.8 4998,869.2 2364.9,545.3 4719.2,1516.2 6548.6,2805.2 1326.5,934.7 2377.2,2036.8 2954.9,3264.6 1130.2,2401.8 1133.7,5186.2 9.3,7448.8 -3.3,6.6 -6.6,13.2 -9.9,19.8 -271.1,3232.1 -1550,5627.5 -1550,5627.5 0,0 4959,-2251.8 4986.7,-9970.9 -22.2,-468.5 -72,-934.5 -149.1,-1393.1 l -13.8,0.8 c -167.9,-998.8 -457,-1938.7 -859.1,-2793.1 -998,-2120.7 -3083.4,-3854.4 -5621,-5115.7 -1429.4,-648.8 -2785.6,-1064.9 -3706.1,-1399.6 -170.5,-62 -361.9,-123.6 -572.1,-184 -568.5,-148.7 -1141.5,-276.6 -1714.4,-383 C 19175.9,9495.9 17782,9357.3 16345,9357.3"
         style="fill:#9a3626;fill-opacity:1;fill-rule:nonzero;stroke:none"
         id="path30" />
      <path
         d="m 18005,7868.8 c -2453,6.9 -4663.9,347 -6314.1,941.2 -691.3,262.4 -1308.3,579.1 -1851,950.3 265.1,-95 3431.9,-1197 7706.4,-1196.9 2869.3,0.1 6238.3,496.9 9562.1,2128.2 2600.8,1276.5 3969.1,3799.7 4594.3,5346.7 -1301.8,-2155.6 -3400.6,-3483.2 -5361.4,-4373.1 2537.6,1261.3 4623,2995 5621,5115.7 402.1,854.4 691.2,1794.3 859.1,2793.1 l 13.8,-0.8 334.8,-20.7 c 49.5,-196.4 94.8,-459.7 110.1,-794.5 -9.1,-508.2 -50,-1059.4 -140.6,-1635.5 -15.7,-79.9 -32.9,-161.7 -51.6,-245.3 -147.3,-658.3 -327.3,-1347.8 -569.5,-2026.8 -277,-686.5 -646.1,-1374 -1133.3,-2036 -624.6,-848.6 -1392,-1589.2 -2299.7,-2220.7 -2103.8,-1238.1 -3947.5,-2186.2 -8362.6,-2600 -22,-2.1 -43.8,-4.1 -65.8,-6.1 -924.3,-75.7 -1815,-115.5 -2652,-118.8 m 2343.7,1829.8 c 572.9,106.4 1145.9,234.3 1714.4,383 -483.3,-138.9 -1064.6,-270.8 -1714.4,-383 m -8164.8,124.1 c -1565.2,396.3 -2953.76,1076.9 -3885.08,2158.6 l 6.03,4.6 4.65,3.5 c 923.81,-981.8 2227,-1710.6 3874.4,-2166.7"
         style="fill:#802510;fill-opacity:1;fill-rule:nonzero;stroke:none"
         id="path32" />
      <path
         d="M 31203.3,12948.4 C 29207.7,10237.1 25707.9,8648.1 20801,8226.1 14250.5,7663.7 9942.31,8909.3 8145.02,11834.7 c 966.2,-1026.8 2344.58,-1796 4106.18,-2264.4 1231.1,-327.3 2611.9,-484.2 4061.8,-484.2 6193.5,0 13628.2,2869.6 15853.6,7598.8 421.1,895 710.4,1858.3 877.6,2851.6 76.6,-1734.1 -168.7,-4315.8 -1840.9,-6588.1 z M 6968.74,16832.8 c 212.94,2662.1 1494.25,3373.8 3267.56,4358.7 1676.5,931.3 3763.1,2090.1 5555.3,5338 1242,2249.2 4865.2,6235.1 9689.3,5213.9 2601.2,-550 4757.8,-2310.1 6073.3,-4956.7 1545,-3108.7 1626.3,-6907 211.6,-9913.3 -2662.7,-5659.2 -13068,-8559.9 -19400.9,-6875 -3752.52,997.5 -5668.99,3424.8 -5396.16,6834.4 z m 26281.86,4654.4 c -7.1,32.1 -21.7,60.1 -40.4,84.7 -5.1,1854.2 -423.9,3730.7 -1259.6,5412 -1376.8,2770.2 -3642,4614.2 -6378,5192.7 -5077.5,1071.4 -8871.9,-3084.9 -10168.6,-5433.5 -1730.8,-3136 -3755.5,-4261 -5382.8,-5164.6 -1822.38,-1012.2 -3261.94,-1811.7 -3493.91,-4710.2 -89.36,-1117.7 41.78,-2135 378.13,-3040.7 0.54,-3.7 -0.78,-7.2 -0.02,-11 578.93,-2908.1 3003.86,-6166.4 10961.8,-6166.4 915.3,0 1904.6,43.2 2971.9,134.9 5039.4,433.2 8646.4,2082.3 10720.9,4900.9 2656,3608.9 1874.3,7964.6 1690.6,8801.2"
         style="fill:#472609;fill-opacity:1;fill-rule:nonzero;stroke:none"
         id="path34" />
      <path
         d="m 9343.94,16633.5 c 161.27,2017.8 1317.86,2562.2 2918.86,3315.8 1533.4,721.6 3441.7,1620.1 4876.1,4219 1033.3,1872.6 3480.5,4750.9 6552.3,4750.9 335.9,0 679.6,-34.6 1029.4,-108.5 2049.4,-433.3 3698,-1717.8 4642.6,-3617.7 1095.1,-2203.3 1090.8,-4916.8 -11.5,-7259.4 -2165.9,-4603.8 -11317.4,-7433.7 -16311.5,-6105.4 -1822.8,484.6 -3943.79,1711.7 -3696.26,4805.3 z m 3582.56,-5233.4 c 900,-239.1 1918,-353.2 2998.7,-352.8 5231.6,0 11931.4,2668.6 13827.3,6697.8 1159.4,2463.6 1162,5321.6 7.1,7645.1 -1005.9,2023.5 -2763,3391.9 -4947.3,3853.7 -3802.9,805.5 -6855.8,-2677.7 -8061.3,-4862 -1364.7,-2473.1 -3124.3,-3301.1 -4676.7,-4031.8 -1604.5,-755.3 -2989.99,-1407.8 -3171.8,-3681.2 -212.08,-2651.2 1216.9,-4522.5 4024,-5268.8"
         style="fill:#472609;fill-opacity:1;fill-rule:nonzero;stroke:none"
         id="path36" />
      <path
         d="m 22473,22337.3 c 869.5,0 1577,-707.4 1577,-1577.3 0,-869.9 -707.5,-1577.3 -1577,-1577.3 -869.7,0 -1577.3,707.4 -1577.3,1577.3 0,869.9 707.6,1577.3 1577.3,1577.3 z m 0,-3597.3 c 1113.7,0 2019.8,906.2 2019.8,2020 0,1113.8 -906.1,2020 -2019.8,2020 -1113.8,0 -2020.1,-906.2 -2020.1,-2020 0,-1113.8 906.3,-2020 2020.1,-2020"
         style="fill:#472609;fill-opacity:1;fill-rule:nonzero;stroke:none"
         id="path38" />
      <path
         d="m 12470.1,4343.8 c -24.4,-71.7 -47.6,-155.9 -69.6,-252.7 h -7.3 c -13,83.8 -33.8,167.2 -62.3,250.2 l -357.6,1037.6 h -577.4 V 3628.4 h 355.2 v 968.1 c 0,130.2 -5.3,281.5 -15.9,454.1 h 11 c 25.2,-131.1 43.5,-212.4 54.9,-244.2 l 417.5,-1178 h 322.3 l 410.1,1190.2 c 16.3,47.2 34.6,124.5 55,232 h 9.7 c -9.7,-136.8 -14.6,-261.7 -14.6,-374.8 V 3628.4 h 389.4 v 1750.5 h -562.7 l -357.7,-1035.1"
         style="fill:#472609;fill-opacity:1;fill-rule:nonzero;stroke:none"
         id="path40" />
      <path
         d="m 14432.7,4348.7 h 572.5 v 319.8 h -572.5 v 389.4 h 615.3 v 321 H 14038.5 V 3628.4 h 1049.8 v 319.9 h -655.6 v 400.4"
         style="fill:#472609;fill-opacity:1;fill-rule:nonzero;stroke:none"
         id="path42" />
      <path
         d="m 16101.2,4320.6 190.4,593.2 c 16.3,50.5 26.5,101.4 30.5,152.6 h 9.8 c 5.7,-61 15.5,-113.5 29.3,-157.4 l 188,-588.4 z m 2.4,1058.3 -637.2,-1750.5 h 427.3 l 123.3,389.4 h 622.5 l 124.5,-389.4 h 429.7 l -622.5,1750.5 h -467.6"
         style="fill:#472609;fill-opacity:1;fill-rule:nonzero;stroke:none"
         id="path44" />
      <path
         d="m 17325.3,5057.9 h 496.8 V 3628.4 h 395.6 v 1429.5 h 499.2 v 321 h -1391.6 v -321"
         style="fill:#472609;fill-opacity:1;fill-rule:nonzero;stroke:none"
         id="path46" />
      <path
         d="m 21132.2,4448.7 c -39.9,41.6 -87.7,78.8 -143.4,111.7 -55.8,33 -118.6,64.1 -188.6,93.4 -51.3,21.2 -97.3,41.7 -138,61.7 -40.7,19.9 -75.2,40.3 -103.7,61 -28.5,20.8 -50.5,42.7 -65.9,65.9 -15.5,23.2 -23.2,49.5 -23.2,78.8 0,26.8 6.9,51 20.7,72.6 13.8,21.6 33.4,40.1 58.6,55.5 25.2,15.5 56.2,27.5 92.8,36.1 36.6,8.5 77.3,12.8 122.1,12.8 32.5,0 66.9,-2.5 103.1,-7.4 36.2,-4.8 72.6,-12.4 109.3,-22.5 36.6,-10.2 72.2,-23 106.8,-38.5 34.5,-15.5 66.5,-33.4 95.8,-53.7 v 365 c -59.4,22.8 -124.3,39.7 -194.7,50.6 -70.4,11 -151.2,16.5 -242.3,16.5 -92.8,0 -180.7,-9.9 -263.7,-29.9 -83,-19.9 -156.1,-51.1 -219.1,-93.4 -63.1,-42.3 -112.9,-96.2 -149.5,-161.7 -36.7,-65.5 -55,-143.9 -55,-235 0,-116.4 33.6,-215.7 100.7,-297.8 67.2,-82.3 169.1,-151.8 305.8,-208.8 53.7,-22 103.8,-43.5 150.2,-64.7 46.3,-21.2 86.4,-43.1 120.2,-65.9 33.8,-22.8 60.4,-47.6 80,-74.5 19.5,-26.8 29.2,-57.3 29.2,-91.5 0,-25.3 -6,-48.7 -18.3,-70.2 -12.2,-21.6 -30.7,-40.3 -55.5,-56.2 -24.8,-15.8 -55.8,-28.2 -92.8,-37.2 -37,-9 -80.3,-13.4 -130,-13.4 -84.6,0 -168.4,14.8 -251.4,44.5 -83,29.7 -160,74.3 -230.8,133.7 v -390.6 c 63.5,-32.6 138.6,-57 225.3,-73.3 86.6,-16.2 178,-24.4 274,-24.4 93.6,0 182.5,9 266.7,26.9 84.3,17.9 158.1,47.4 221.6,88.5 63.5,41.1 113.7,94.8 150.8,161.1 37,66.3 55.5,148.3 55.5,246 0,70.8 -10.6,132.8 -31.7,186.1 -21.2,53.3 -51.7,100.7 -91.6,142.2"
         style="fill:#472609;fill-opacity:1;fill-rule:nonzero;stroke:none"
         id="path48" />
      <path
         d="M 21631.2,5057.9 H 22128 V 3628.4 h 395.6 v 1429.5 h 499.2 v 321 h -1391.6 v -321"
         style="fill:#472609;fill-opacity:1;fill-rule:nonzero;stroke:none"
         id="path50" />
      <path
         d="m 23902.7,4348.7 h 572.5 v 319.8 h -572.5 v 389.4 h 615.2 v 321 H 23508.4 V 3628.4 h 1049.8 v 319.9 h -655.5 v 400.4"
         style="fill:#472609;fill-opacity:1;fill-rule:nonzero;stroke:none"
         id="path52" />
      <path
         d="m 25571.2,4320.6 190.4,593.2 c 16.3,50.5 26.4,101.4 30.5,152.6 h 9.8 c 5.7,-61 15.4,-113.5 29.3,-157.4 l 188,-588.4 z m 2.4,1058.3 -637.2,-1750.5 h 427.3 l 123.2,389.4 h 622.6 l 124.5,-389.4 h 429.7 l -622.6,1750.5 h -467.5"
         style="fill:#472609;fill-opacity:1;fill-rule:nonzero;stroke:none"
         id="path54" />
      <path
         d="m 27924.4,4544 610.4,834.9 h -470 l -483.4,-730 c -22.8,-42.3 -39,-74.8 -48.8,-97.6 h -6.1 v 827.6 h -394.3 V 3628.4 h 394.3 v 857 h 6.1 c 21.2,-49.7 36.6,-81.8 46.4,-96.5 l 510.2,-760.5 h 498.1 l -662.9,915.6"
         style="fill:#472609;fill-opacity:1;fill-rule:nonzero;stroke:none"
         id="path56" />
    </g>
  </g>
</svg>
